<?xml version="1.0" encoding="UTF-8" standalone="no"?>
<!-- Created with Inkscape (http://www.inkscape.org/) -->

<svg
   width="20.866261mm"
   height="20.866268mm"
   viewBox="0 0 20.866261 20.866268"
   version="1.1"
   id="svg1"
   inkscape:version="1.4 (e7c3feb1, 2024-10-09)"
   sodipodi:docname="portfolio.svg"
   xml:space="preserve"
   xmlns:inkscape="http://www.inkscape.org/namespaces/inkscape"
   xmlns:sodipodi="http://sodipodi.sourceforge.net/DTD/sodipodi-0.dtd"
   xmlns="http://www.w3.org/2000/svg"
   xmlns:svg="http://www.w3.org/2000/svg"><sodipodi:namedview
     id="namedview1"
     pagecolor="#ffffff"
     bordercolor="#000000"
     borderopacity="0.25"
     inkscape:showpageshadow="2"
     inkscape:pageopacity="0.0"
     inkscape:pagecheckerboard="0"
     inkscape:deskcolor="#d1d1d1"
     inkscape:document-units="mm"
     inkscape:zoom="0.70710678"
     inkscape:cx="156.2706"
     inkscape:cy="646.2956"
     inkscape:window-width="1728"
     inkscape:window-height="1027"
     inkscape:window-x="2191"
     inkscape:window-y="25"
     inkscape:window-maximized="0"
     inkscape:current-layer="layer1"><inkscape:page
       x="0"
       y="8.2720365e-15"
       width="20.866261"
       height="20.866266"
       id="page2"
       margin="0"
       bleed="0" /></sodipodi:namedview><defs
     id="defs1"><filter
       inkscape:collect="always"
       style="color-interpolation-filters:sRGB"
       id="filter47"
       x="-0.1307715"
       y="-0.5002348"
       width="1.261543"
       height="2.0004696"><feGaussianBlur
         inkscape:collect="always"
         stdDeviation="0.63236251"
         id="feGaussianBlur47" /></filter></defs><g
     inkscape:label="Layer 1"
     inkscape:groupmode="layer"
     id="layer1"
     transform="translate(-60.450085,-112.8817)"><circle
       style="opacity:1;fill:#1d293d;fill-opacity:1;stroke:none;stroke-width:4.17324;stroke-linecap:round;stroke-linejoin:round;stroke-dasharray:none;stroke-opacity:1"
       id="path41"
       cx="70.883217"
       cy="123.31482"
       r="10.433132"
       inkscape:export-filename="portfolio/public/gmailDark.svg"
       inkscape:export-xdpi="96"
       inkscape:export-ydpi="96" /><g
       id="g39"
       transform="matrix(0.16891299,0,0,0.16891299,54.66757,110.64778)"><path
         fill="#4285f4"
         d="M 58,108 H 72 V 74 L 52,59 v 43 c 0,3.32 2.69,6 6,6"
         id="path1-5" /><path
         fill="#34a853"
         d="m 120,108 h 14 c 3.32,0 6,-2.69 6,-6 V 59 l -20,15"
         id="path2-6" /><path
         fill="#fbbc04"
         d="m 120,48 v 26 l 20,-15 v -8 c 0,-7.42 -8.47,-11.65 -14.4,-7.2"
         id="path3-7" /><path
         fill="#ea4335"
         d="M 72,74 V 48 L 96,66 120,48 V 74 L 96,92"
         id="path4" /><path
         fill="#c5221f"
         d="m 52,51 v 8 L 72,74 V 48 L 66.4,43.8 C 60.46,39.35 52,43.58 52,51"
         id="path5" /></g><path
       id="path47"
       style="opacity:0.660661;fill:#ffffff;stroke-width:4.79999;stroke-linecap:round;stroke-linejoin:round;filter:url(#filter47)"
       transform="rotate(33.395312,8.165213,6.563227)"
       d="m 130.67463,63.323685 c 0,0.9816 -2.19378,-0.03775 -5.1515,-0.03775 -2.95771,0 -6.45401,0.936912 -6.45401,-0.04469 0,-0.981598 3.36151,-2.524784 6.31922,-2.524785 2.95772,-10e-7 5.28629,1.625623 5.28629,2.607222 z"
       sodipodi:nodetypes="sssss" /></g></svg>
